<mxfile host="Electron" modified="2023-12-08T15:47:11.176Z" agent="Mozilla/5.0 (Macintosh; Intel Mac OS X 10_15_7) AppleWebKit/537.36 (KHTML, like Gecko) draw.io/22.1.2 Chrome/114.0.5735.289 Electron/25.9.4 Safari/537.36" etag="WpFINeZ3qV03ehsEi6uG" version="22.1.2" type="device">
  <diagram name="Page-1" id="tOKatF07P9CiJOWHDksF">
    <mxGraphModel dx="1114" dy="878" grid="1" gridSize="10" guides="1" tooltips="1" connect="1" arrows="1" fold="1" page="1" pageScale="1" pageWidth="850" pageHeight="1100" math="0" shadow="0">
      <root>
        <mxCell id="0" />
        <mxCell id="1" parent="0" />
        <mxCell id="y7TbIQ7WOGR4q9mUZn1G-3" value="" style="edgeStyle=orthogonalEdgeStyle;rounded=0;orthogonalLoop=1;jettySize=auto;html=1;fontFamily=Helvetica;" parent="1" source="y7TbIQ7WOGR4q9mUZn1G-1" target="y7TbIQ7WOGR4q9mUZn1G-2" edge="1">
          <mxGeometry relative="1" as="geometry" />
        </mxCell>
        <mxCell id="y7TbIQ7WOGR4q9mUZn1G-19" value="" style="edgeStyle=orthogonalEdgeStyle;rounded=0;orthogonalLoop=1;jettySize=auto;html=1;strokeColor=none;endArrow=none;endFill=0;fontFamily=Helvetica;" parent="1" target="y7TbIQ7WOGR4q9mUZn1G-18" edge="1">
          <mxGeometry relative="1" as="geometry">
            <mxPoint x="320" y="70" as="sourcePoint" />
          </mxGeometry>
        </mxCell>
        <mxCell id="y7TbIQ7WOGR4q9mUZn1G-20" value="" style="edgeStyle=orthogonalEdgeStyle;rounded=0;orthogonalLoop=1;jettySize=auto;html=1;endArrow=none;endFill=0;fontFamily=Helvetica;" parent="1" source="y7TbIQ7WOGR4q9mUZn1G-1" target="y7TbIQ7WOGR4q9mUZn1G-18" edge="1">
          <mxGeometry relative="1" as="geometry" />
        </mxCell>
        <mxCell id="y7TbIQ7WOGR4q9mUZn1G-1" value="&lt;b&gt;Establish the Executive Group&lt;/b&gt;" style="rounded=1;whiteSpace=wrap;html=1;fontStyle=0;fontSize=13;labelBackgroundColor=none;fillColor=#f5f5f5;fontColor=#333333;strokeColor=#666666;fontFamily=Helvetica;spacingLeft=15;spacingRight=15;spacing=0;" parent="1" vertex="1">
          <mxGeometry x="160" y="40" width="170" height="67" as="geometry" />
        </mxCell>
        <mxCell id="y7TbIQ7WOGR4q9mUZn1G-5" value="" style="edgeStyle=orthogonalEdgeStyle;rounded=0;orthogonalLoop=1;jettySize=auto;html=1;fontFamily=Helvetica;" parent="1" source="y7TbIQ7WOGR4q9mUZn1G-2" target="y7TbIQ7WOGR4q9mUZn1G-4" edge="1">
          <mxGeometry relative="1" as="geometry" />
        </mxCell>
        <mxCell id="y7TbIQ7WOGR4q9mUZn1G-24" value="" style="edgeStyle=orthogonalEdgeStyle;rounded=0;orthogonalLoop=1;jettySize=auto;html=1;endArrow=none;endFill=0;exitX=1;exitY=0.5;exitDx=0;exitDy=0;fontFamily=Helvetica;entryX=0;entryY=0.5;entryDx=0;entryDy=0;" parent="1" source="y7TbIQ7WOGR4q9mUZn1G-2" target="y7TbIQ7WOGR4q9mUZn1G-23" edge="1">
          <mxGeometry relative="1" as="geometry">
            <mxPoint x="400" y="250" as="targetPoint" />
          </mxGeometry>
        </mxCell>
        <mxCell id="y7TbIQ7WOGR4q9mUZn1G-2" value="&lt;b&gt;Generate candidate &lt;br&gt;evaluation items&lt;/b&gt;" style="rounded=1;whiteSpace=wrap;html=1;fontStyle=0;fontSize=13;fillColor=#f5f5f5;strokeColor=#666666;fontColor=#333333;fontFamily=Helvetica;spacingLeft=15;spacingRight=15;spacing=0;" parent="1" vertex="1">
          <mxGeometry x="160" y="180" width="170" height="67" as="geometry" />
        </mxCell>
        <mxCell id="y7TbIQ7WOGR4q9mUZn1G-9" value="" style="edgeStyle=orthogonalEdgeStyle;rounded=0;orthogonalLoop=1;jettySize=auto;html=1;fontFamily=Helvetica;" parent="1" source="y7TbIQ7WOGR4q9mUZn1G-4" target="y7TbIQ7WOGR4q9mUZn1G-8" edge="1">
          <mxGeometry relative="1" as="geometry" />
        </mxCell>
        <mxCell id="y7TbIQ7WOGR4q9mUZn1G-4" value="&lt;b&gt;Perform the international &lt;br&gt;e-Delphi durvey&lt;/b&gt;" style="rounded=1;whiteSpace=wrap;html=1;fontStyle=0;fontSize=13;fillColor=#f5f5f5;fontColor=#333333;strokeColor=#666666;fontFamily=Helvetica;spacingLeft=15;spacingRight=15;spacing=0;" parent="1" vertex="1">
          <mxGeometry x="160" y="320" width="170" height="67" as="geometry" />
        </mxCell>
        <mxCell id="y7TbIQ7WOGR4q9mUZn1G-11" value="" style="edgeStyle=orthogonalEdgeStyle;rounded=0;orthogonalLoop=1;jettySize=auto;html=1;fontFamily=Helvetica;" parent="1" source="y7TbIQ7WOGR4q9mUZn1G-8" target="y7TbIQ7WOGR4q9mUZn1G-10" edge="1">
          <mxGeometry relative="1" as="geometry" />
        </mxCell>
        <mxCell id="y7TbIQ7WOGR4q9mUZn1G-8" value="&lt;b&gt;Conduct the consensus meeting&lt;/b&gt;" style="rounded=1;whiteSpace=wrap;html=1;fontStyle=0;fontSize=13;fillColor=#f5f5f5;fontColor=#333333;strokeColor=#666666;fontFamily=Helvetica;spacingLeft=15;spacingRight=15;spacing=0;" parent="1" vertex="1">
          <mxGeometry x="160" y="460" width="170" height="67" as="geometry" />
        </mxCell>
        <mxCell id="y7TbIQ7WOGR4q9mUZn1G-10" value="&lt;b&gt;Disseminate the evaluation framework&lt;/b&gt;" style="rounded=1;whiteSpace=wrap;html=1;fontStyle=0;fontSize=13;fillColor=#f5f5f5;fontColor=#333333;strokeColor=#666666;fontFamily=Helvetica;spacingLeft=15;spacingRight=15;spacing=0;" parent="1" vertex="1">
          <mxGeometry x="160" y="600" width="170" height="67" as="geometry" />
        </mxCell>
        <mxCell id="y7TbIQ7WOGR4q9mUZn1G-18" value="&lt;ul&gt;&lt;li&gt;&lt;span style=&quot;background-color: initial; text-align: justify;&quot;&gt;Agree on the scope of the study and develop study protocol.&lt;/span&gt;&lt;/li&gt;&lt;li style=&quot;text-align: justify;&quot;&gt;Agree on Terms of Reference for executive group members.&lt;/li&gt;&lt;/ul&gt;" style="whiteSpace=wrap;html=1;rounded=0;align=left;fontFamily=Helvetica;spacingLeft=-15;spacingRight=20;spacing=0;" parent="1" vertex="1">
          <mxGeometry x="420" y="40" width="390" height="67" as="geometry" />
        </mxCell>
        <mxCell id="y7TbIQ7WOGR4q9mUZn1G-23" value="&lt;ul&gt;&lt;li&gt;&lt;span style=&quot;background-color: initial; text-align: justify;&quot;&gt;Conduct scoping reviews to extract&amp;nbsp;&lt;/span&gt;relevant items for e-Delphi.&lt;/li&gt;&lt;li&gt;Review candidate items with the Executive Group to establish the organization, completeness, and redundancy of the candidate items list.&lt;/li&gt;&lt;/ul&gt;" style="whiteSpace=wrap;html=1;rounded=0;align=left;fontFamily=Helvetica;spacingLeft=-15;spacingRight=20;" parent="1" vertex="1">
          <mxGeometry x="420" y="180" width="390" height="67" as="geometry" />
        </mxCell>
        <mxCell id="y7TbIQ7WOGR4q9mUZn1G-25" value="&lt;ul&gt;&lt;li style=&quot;&quot;&gt;Recruit, screen, and register international participants for participation in e-Delphi survey.&lt;/li&gt;&lt;li style=&quot;&quot;&gt;Conduct recruitment and retention efforts during each round.&lt;/li&gt;&lt;/ul&gt;" style="whiteSpace=wrap;html=1;rounded=0;align=left;fontFamily=Helvetica;textDirection=ltr;spacing=0;spacingRight=20;spacingLeft=-15;" parent="1" vertex="1">
          <mxGeometry x="420" y="321" width="390" height="66" as="geometry" />
        </mxCell>
        <mxCell id="y7TbIQ7WOGR4q9mUZn1G-26" value="" style="edgeStyle=orthogonalEdgeStyle;rounded=0;orthogonalLoop=1;jettySize=auto;html=1;endArrow=none;endFill=0;exitX=1;exitY=0.5;exitDx=0;exitDy=0;entryX=0;entryY=0.5;entryDx=0;entryDy=0;fontFamily=Helvetica;" parent="1" edge="1" target="y7TbIQ7WOGR4q9mUZn1G-25" source="y7TbIQ7WOGR4q9mUZn1G-4">
          <mxGeometry relative="1" as="geometry">
            <mxPoint x="320" y="349.5" as="sourcePoint" />
            <mxPoint x="420" y="349.5" as="targetPoint" />
          </mxGeometry>
        </mxCell>
        <mxCell id="y7TbIQ7WOGR4q9mUZn1G-27" value="&lt;ul&gt;&lt;li style=&quot;&quot;&gt;Obtain expert consensus on the final list of items for &lt;i&gt;PHES-EF.&lt;/i&gt;&lt;/li&gt;&lt;li style=&quot;&quot;&gt;Determine dissemination strategies for the evaluation framework.&lt;/li&gt;&lt;/ul&gt;" style="whiteSpace=wrap;html=1;rounded=0;align=left;fontFamily=Helvetica;spacingLeft=-15;spacingRight=20;spacing=0;" parent="1" vertex="1">
          <mxGeometry x="420" y="460" width="390" height="67" as="geometry" />
        </mxCell>
        <mxCell id="y7TbIQ7WOGR4q9mUZn1G-28" value="&lt;ul&gt;&lt;li&gt;&lt;span style=&quot;background-color: initial;&quot;&gt;Make the framework available to all stakeholder groups and publish it in an open-access journal with an open license.&lt;/span&gt;&lt;/li&gt;&lt;li&gt;&lt;span style=&quot;background-color: initial;&quot;&gt;Engage with researchers and promote the adoption of the evaluation framework.&lt;/span&gt;&lt;/li&gt;&lt;/ul&gt;" style="whiteSpace=wrap;html=1;rounded=0;align=left;fontFamily=Helvetica;spacingLeft=-15;spacingRight=20;spacing=0;" parent="1" vertex="1">
          <mxGeometry x="420" y="600" width="390" height="67" as="geometry" />
        </mxCell>
        <mxCell id="y7TbIQ7WOGR4q9mUZn1G-30" value="" style="edgeStyle=orthogonalEdgeStyle;rounded=0;orthogonalLoop=1;jettySize=auto;html=1;endArrow=none;endFill=0;entryX=0;entryY=0.5;entryDx=0;entryDy=0;exitX=1;exitY=0.5;exitDx=0;exitDy=0;fontFamily=Helvetica;" parent="1" edge="1" target="y7TbIQ7WOGR4q9mUZn1G-27" source="y7TbIQ7WOGR4q9mUZn1G-8">
          <mxGeometry relative="1" as="geometry">
            <mxPoint x="330" y="490" as="sourcePoint" />
            <mxPoint x="410" y="490" as="targetPoint" />
          </mxGeometry>
        </mxCell>
        <mxCell id="y7TbIQ7WOGR4q9mUZn1G-31" value="" style="edgeStyle=orthogonalEdgeStyle;rounded=0;orthogonalLoop=1;jettySize=auto;html=1;endArrow=none;endFill=0;entryX=0;entryY=0.5;entryDx=0;entryDy=0;exitX=1;exitY=0.5;exitDx=0;exitDy=0;fontFamily=Helvetica;" parent="1" edge="1" target="y7TbIQ7WOGR4q9mUZn1G-28" source="y7TbIQ7WOGR4q9mUZn1G-10">
          <mxGeometry relative="1" as="geometry">
            <mxPoint x="330" y="630" as="sourcePoint" />
            <mxPoint x="420" y="629.5" as="targetPoint" />
          </mxGeometry>
        </mxCell>
        <mxCell id="y7TbIQ7WOGR4q9mUZn1G-35" value="&lt;span&gt;STEP 1&lt;/span&gt;" style="text;html=1;strokeColor=none;fillColor=none;align=center;verticalAlign=middle;whiteSpace=wrap;rounded=0;fontSize=16;fontStyle=0;fontFamily=Helvetica;" parent="1" vertex="1">
          <mxGeometry x="80" y="55" width="60" height="30" as="geometry" />
        </mxCell>
        <mxCell id="y7TbIQ7WOGR4q9mUZn1G-36" value="STEP 2" style="text;html=1;strokeColor=none;fillColor=none;align=center;verticalAlign=middle;whiteSpace=wrap;rounded=0;fontSize=16;fontStyle=0;fontFamily=Helvetica;" parent="1" vertex="1">
          <mxGeometry x="80" y="195" width="60" height="30" as="geometry" />
        </mxCell>
        <mxCell id="y7TbIQ7WOGR4q9mUZn1G-37" value="STEP 3" style="text;html=1;strokeColor=none;fillColor=none;align=center;verticalAlign=middle;whiteSpace=wrap;rounded=0;fontSize=16;fontStyle=0;fontFamily=Helvetica;" parent="1" vertex="1">
          <mxGeometry x="80" y="335" width="60" height="30" as="geometry" />
        </mxCell>
        <mxCell id="y7TbIQ7WOGR4q9mUZn1G-38" value="STEP 5" style="text;html=1;strokeColor=none;fillColor=none;align=center;verticalAlign=middle;whiteSpace=wrap;rounded=0;fontSize=16;fontStyle=0;fontFamily=Helvetica;" parent="1" vertex="1">
          <mxGeometry x="80" y="615" width="60" height="30" as="geometry" />
        </mxCell>
        <mxCell id="y7TbIQ7WOGR4q9mUZn1G-39" value="STEP 4" style="text;html=1;strokeColor=none;fillColor=none;align=center;verticalAlign=middle;whiteSpace=wrap;rounded=0;fontSize=16;fontStyle=0;fontFamily=Helvetica;" parent="1" vertex="1">
          <mxGeometry x="80" y="475" width="60" height="30" as="geometry" />
        </mxCell>
      </root>
    </mxGraphModel>
  </diagram>
</mxfile>
